<?xml version="1.0" encoding="UTF-8"?><svg xmlns="http://www.w3.org/2000/svg" xmlns:xlink="http://www.w3.org/1999/xlink" contentStyleType="text/css" height="1494px" preserveAspectRatio="none" style="width:845px;height:1494px;background:#FFFFFF;" version="1.1" viewBox="0 0 845 1494" width="845px" zoomAndPan="magnify">
    <defs/>
    <g>
        <!--cluster parqueaderoapp5-->
        <g id="cluster_parqueaderoapp5">
            <path d="M8.5,6 L134.5,6 A3.75,3.75 0 0 1 137,8.5 L144,29.6094 L511.5,29.6094 A2.5,2.5 0 0 1 514,32.1094 L514,1484.5 A2.5,2.5 0 0 1 511.5,1487 L8.5,1487 A2.5,2.5 0 0 1 6,1484.5 L6,8.5 A2.5,2.5 0 0 1 8.5,6 " fill="none" style="stroke:#000000;stroke-width:1.5;"/>
            <line style="stroke:#000000;stroke-width:1.5;" x1="6" x2="144" y1="29.6094" y2="29.6094"/>
            <text fill="#000000" font-family="sans-serif" font-size="14" font-weight="bold" lengthAdjust="spacing" textLength="125" x="10" y="22.5332">parqueaderoapp5</text>
        </g>
        <!--cluster controllers-->
        <g id="cluster_controllers">
            <path d="M130.5,189 L208.5,189 A3.75,3.75 0 0 1 211,191.5 L218,212.6094 L487.5,212.6094 A2.5,2.5 0 0 1 490,215.1094 L490,1011.5 A2.5,2.5 0 0 1 487.5,1014 L130.5,1014 A2.5,2.5 0 0 1 128,1011.5 L128,191.5 A2.5,2.5 0 0 1 130.5,189 " fill="none" style="stroke:#000000;stroke-width:1.5;"/>
            <line style="stroke:#000000;stroke-width:1.5;" x1="128" x2="218" y1="212.6094" y2="212.6094"/>
            <text fill="#000000" font-family="sans-serif" font-size="14" font-weight="bold" lengthAdjust="spacing" textLength="77" x="132" y="205.5332">controllers</text>
        </g>
        <!--cluster models-->
        <g id="cluster_models">
            <path d="M32.5,1064 L84.5,1064 A3.75,3.75 0 0 1 87,1066.5 L94,1087.6094 L487.5,1087.6094 A2.5,2.5 0 0 1 490,1090.1094 L490,1460.5 A2.5,2.5 0 0 1 487.5,1463 L32.5,1463 A2.5,2.5 0 0 1 30,1460.5 L30,1066.5 A2.5,2.5 0 0 1 32.5,1064 " fill="none" style="stroke:#000000;stroke-width:1.5;"/>
            <line style="stroke:#000000;stroke-width:1.5;" x1="30" x2="94" y1="1087.6094" y2="1087.6094"/>
            <text fill="#000000" font-family="sans-serif" font-size="14" font-weight="bold" lengthAdjust="spacing" textLength="51" x="34" y="1080.5332">models</text>
        </g>
        <!--class ParqueaderoApp5-->
        <g id="elem_ParqueaderoApp5">
            <rect codeLine="3" fill="#F1F1F1" height="83.2188" id="ParqueaderoApp5" rx="2.5" ry="2.5" style="stroke:#181818;stroke-width:0.5;" width="227" x="195.5" y="42"/>
            <ellipse cx="246.75" cy="58" fill="#ADD1B2" rx="11" ry="11" style="stroke:#181818;stroke-width:1.0;"/>
            <path d="M249.5156,53.875 Q249.6719,53.6563 249.8594,53.5469 Q250.0469,53.4375 250.2656,53.4375 Q250.6406,53.4375 250.875,53.7031 Q251.1094,53.9531 251.1094,54.5625 L251.1094,56.0156 Q251.1094,56.625 250.875,56.8906 Q250.6406,57.1563 250.2656,57.1563 Q249.9219,57.1563 249.7188,56.9531 Q249.5156,56.7656 249.4063,56.25 Q249.3594,55.8906 249.1719,55.7031 Q248.8438,55.3281 248.2344,55.1094 Q247.625,54.8906 247,54.8906 Q246.2344,54.8906 245.5938,55.2188 Q244.9688,55.5469 244.4688,56.2969 Q243.9844,57.0469 243.9844,58.0781 L243.9844,59.1719 Q243.9844,60.4063 244.875,61.2344 Q245.7656,62.0469 247.3594,62.0469 Q248.2969,62.0469 248.9531,61.7969 Q249.3438,61.6406 249.7656,61.2031 Q250.0313,60.9375 250.1719,60.8594 Q250.3281,60.7813 250.5313,60.7813 Q250.8594,60.7813 251.1094,61.0469 Q251.375,61.2969 251.375,61.6406 Q251.375,61.9844 251.0313,62.3906 Q250.5313,62.9688 249.7344,63.2969 Q248.6563,63.75 247.3594,63.75 Q245.8438,63.75 244.6406,63.125 Q243.6563,62.625 242.9688,61.5625 Q242.2813,60.4844 242.2813,59.2031 L242.2813,58.0469 Q242.2813,56.7188 242.8906,55.5781 Q243.5156,54.4219 244.6094,53.8125 Q245.7031,53.1875 246.9375,53.1875 Q247.6719,53.1875 248.3125,53.3594 Q248.9688,53.5156 249.5156,53.875 Z " fill="#000000"/>
            <text fill="#000000" font-family="sans-serif" font-size="14" lengthAdjust="spacing" textLength="116" x="267.25" y="63.7285">ParqueaderoApp5</text>
            <line style="stroke:#181818;stroke-width:0.5;" x1="196.5" x2="421.5" y1="74" y2="74"/>
            <line style="stroke:#181818;stroke-width:0.5;" x1="196.5" x2="421.5" y1="82" y2="82"/>
            <ellipse cx="206.5" cy="96.3047" fill="#84BE84" rx="3" ry="3" style="stroke:#038048;stroke-width:1.0;"/>
            <text fill="#000000" font-family="sans-serif" font-size="14" lengthAdjust="spacing" textLength="201" x="215.5" y="100.5332">start(Stage primaryStage) : void</text>
            <ellipse cx="206.5" cy="113.9141" fill="#84BE84" rx="3" ry="3" style="stroke:#038048;stroke-width:1.0;"/>
            <text fill="#000000" font-family="sans-serif" font-size="14" lengthAdjust="spacing" textLength="155" x="215.5" y="118.1426">main(String[] args) : void</text>
        </g>
        <!--class MainController-->
        <g id="elem_MainController">
            <rect codeLine="9" fill="#F1F1F1" height="505.8438" id="MainController" rx="2.5" ry="2.5" style="stroke:#181818;stroke-width:0.5;" width="330" x="144" y="225"/>
            <ellipse cx="258.75" cy="241" fill="#ADD1B2" rx="11" ry="11" style="stroke:#181818;stroke-width:1.0;"/>
            <path d="M261.5156,236.875 Q261.6719,236.6563 261.8594,236.5469 Q262.0469,236.4375 262.2656,236.4375 Q262.6406,236.4375 262.875,236.7031 Q263.1094,236.9531 263.1094,237.5625 L263.1094,239.0156 Q263.1094,239.625 262.875,239.8906 Q262.6406,240.1563 262.2656,240.1563 Q261.9219,240.1563 261.7188,239.9531 Q261.5156,239.7656 261.4063,239.25 Q261.3594,238.8906 261.1719,238.7031 Q260.8438,238.3281 260.2344,238.1094 Q259.625,237.8906 259,237.8906 Q258.2344,237.8906 257.5938,238.2188 Q256.9688,238.5469 256.4688,239.2969 Q255.9844,240.0469 255.9844,241.0781 L255.9844,242.1719 Q255.9844,243.4063 256.875,244.2344 Q257.7656,245.0469 259.3594,245.0469 Q260.2969,245.0469 260.9531,244.7969 Q261.3438,244.6406 261.7656,244.2031 Q262.0313,243.9375 262.1719,243.8594 Q262.3281,243.7813 262.5313,243.7813 Q262.8594,243.7813 263.1094,244.0469 Q263.375,244.2969 263.375,244.6406 Q263.375,244.9844 263.0313,245.3906 Q262.5313,245.9688 261.7344,246.2969 Q260.6563,246.75 259.3594,246.75 Q257.8438,246.75 256.6406,246.125 Q255.6563,245.625 254.9688,244.5625 Q254.2813,243.4844 254.2813,242.2031 L254.2813,241.0469 Q254.2813,239.7188 254.8906,238.5781 Q255.5156,237.4219 256.6094,236.8125 Q257.7031,236.1875 258.9375,236.1875 Q259.6719,236.1875 260.3125,236.3594 Q260.9688,236.5156 261.5156,236.875 Z " fill="#000000"/>
            <text fill="#000000" font-family="sans-serif" font-size="14" lengthAdjust="spacing" textLength="92" x="279.25" y="246.7285">MainController</text>
            <line style="stroke:#181818;stroke-width:0.5;" x1="145" x2="473" y1="257" y2="257"/>
            <rect fill="none" height="6" style="stroke:#C82930;stroke-width:1.0;" width="6" x="152" y="268.3047"/>
            <text fill="#000000" font-family="sans-serif" font-size="14" lengthAdjust="spacing" textLength="234" x="164" y="275.5332">TableView&lt;Vehiculo&gt; vehiculosTable</text>
            <rect fill="none" height="6" style="stroke:#C82930;stroke-width:1.0;" width="6" x="152" y="285.9141"/>
            <text fill="#000000" font-family="sans-serif" font-size="14" lengthAdjust="spacing" textLength="285" x="164" y="293.1426">TableColumn&lt;Vehiculo, String&gt; placaColumn</text>
            <rect fill="none" height="6" style="stroke:#C82930;stroke-width:1.0;" width="6" x="152" y="303.5234"/>
            <text fill="#000000" font-family="sans-serif" font-size="14" lengthAdjust="spacing" textLength="290" x="164" y="310.752">TableColumn&lt;Vehiculo, String&gt; marcaColumn</text>
            <rect fill="none" height="6" style="stroke:#C82930;stroke-width:1.0;" width="6" x="152" y="321.1328"/>
            <text fill="#000000" font-family="sans-serif" font-size="14" lengthAdjust="spacing" textLength="297" x="164" y="328.3613">TableColumn&lt;Vehiculo, String&gt; modeloColumn</text>
            <rect fill="none" height="6" style="stroke:#C82930;stroke-width:1.0;" width="6" x="152" y="338.7422"/>
            <text fill="#000000" font-family="sans-serif" font-size="14" lengthAdjust="spacing" textLength="282" x="164" y="345.9707">TableColumn&lt;Vehiculo, String&gt; colorColumn</text>
            <rect fill="none" height="6" style="stroke:#C82930;stroke-width:1.0;" width="6" x="152" y="356.3516"/>
            <text fill="#000000" font-family="sans-serif" font-size="14" lengthAdjust="spacing" textLength="127" x="164" y="363.5801">TextField placaField</text>
            <rect fill="none" height="6" style="stroke:#C82930;stroke-width:1.0;" width="6" x="152" y="373.9609"/>
            <text fill="#000000" font-family="sans-serif" font-size="14" lengthAdjust="spacing" textLength="132" x="164" y="381.1895">TextField marcaField</text>
            <rect fill="none" height="6" style="stroke:#C82930;stroke-width:1.0;" width="6" x="152" y="391.5703"/>
            <text fill="#000000" font-family="sans-serif" font-size="14" lengthAdjust="spacing" textLength="139" x="164" y="398.7988">TextField modeloField</text>
            <rect fill="none" height="6" style="stroke:#C82930;stroke-width:1.0;" width="6" x="152" y="409.1797"/>
            <text fill="#000000" font-family="sans-serif" font-size="14" lengthAdjust="spacing" textLength="124" x="164" y="416.4082">TextField colorField</text>
            <rect fill="none" height="6" style="stroke:#C82930;stroke-width:1.0;" width="6" x="152" y="426.7891"/>
            <text fill="#000000" font-family="sans-serif" font-size="14" lengthAdjust="spacing" textLength="136" x="164" y="434.0176">TextField searchField</text>
            <rect fill="none" height="6" style="stroke:#C82930;stroke-width:1.0;" width="6" x="152" y="444.3984"/>
            <text fill="#000000" font-family="sans-serif" font-size="14" lengthAdjust="spacing" textLength="139" x="164" y="451.627">Label searchMessage</text>
            <rect fill="none" height="6" style="stroke:#C82930;stroke-width:1.0;" width="6" x="152" y="462.0078"/>
            <text fill="#000000" font-family="sans-serif" font-size="14" lengthAdjust="spacing" textLength="127" x="164" y="469.2363">Label errorMessage</text>
            <rect fill="none" height="6" style="stroke:#C82930;stroke-width:1.0;" width="6" x="152" y="479.6172"/>
            <text fill="#000000" font-family="sans-serif" font-size="14" lengthAdjust="spacing" textLength="234" x="164" y="486.8457">VehiculoController vehiculoController</text>
            <rect fill="none" height="6" style="stroke:#C82930;stroke-width:1.0;" width="6" x="152" y="497.2266"/>
            <text fill="#000000" font-family="sans-serif" font-size="14" lengthAdjust="spacing" textLength="258" x="164" y="504.4551">ObservableList&lt;Vehiculo&gt; vehiculosData</text>
            <line style="stroke:#181818;stroke-width:0.5;" x1="145" x2="473" y1="511.5313" y2="511.5313"/>
            <ellipse cx="155" cy="525.8359" fill="#84BE84" rx="3" ry="3" style="stroke:#038048;stroke-width:1.0;"/>
            <text fill="#000000" font-family="sans-serif" font-size="14" lengthAdjust="spacing" textLength="97" x="164" y="530.0645">initialize() : void</text>
            <ellipse cx="155" cy="543.4453" fill="#84BE84" rx="3" ry="3" style="stroke:#038048;stroke-width:1.0;"/>
            <text fill="#000000" font-family="sans-serif" font-size="14" lengthAdjust="spacing" textLength="160" x="164" y="547.6738">validateFields() : boolean</text>
            <ellipse cx="155" cy="561.0547" fill="#84BE84" rx="3" ry="3" style="stroke:#038048;stroke-width:1.0;"/>
            <text fill="#000000" font-family="sans-serif" font-size="14" lengthAdjust="spacing" textLength="232" x="164" y="565.2832">validatePlaca(String placa) : boolean</text>
            <ellipse cx="155" cy="578.6641" fill="#84BE84" rx="3" ry="3" style="stroke:#038048;stroke-width:1.0;"/>
            <text fill="#000000" font-family="sans-serif" font-size="14" lengthAdjust="spacing" textLength="228" x="164" y="582.8926">validateColor(String color) : boolean</text>
            <ellipse cx="155" cy="596.2734" fill="#84BE84" rx="3" ry="3" style="stroke:#038048;stroke-width:1.0;"/>
            <text fill="#000000" font-family="sans-serif" font-size="14" lengthAdjust="spacing" textLength="237" x="164" y="600.502">isPlacaUnique(String placa) : boolean</text>
            <ellipse cx="155" cy="613.8828" fill="#84BE84" rx="3" ry="3" style="stroke:#038048;stroke-width:1.0;"/>
            <text fill="#000000" font-family="sans-serif" font-size="14" lengthAdjust="spacing" textLength="284" x="164" y="618.1113">handleAddVehiculo(ActionEvent event) : void</text>
            <ellipse cx="155" cy="631.4922" fill="#84BE84" rx="3" ry="3" style="stroke:#038048;stroke-width:1.0;"/>
            <text fill="#000000" font-family="sans-serif" font-size="14" lengthAdjust="spacing" textLength="300" x="164" y="635.7207">handleDeleteVehiculo(ActionEvent event) : void</text>
            <ellipse cx="155" cy="649.1016" fill="#84BE84" rx="3" ry="3" style="stroke:#038048;stroke-width:1.0;"/>
            <text fill="#000000" font-family="sans-serif" font-size="14" lengthAdjust="spacing" textLength="304" x="164" y="653.3301">handleUpdateVehiculo(ActionEvent event) : void</text>
            <ellipse cx="155" cy="666.7109" fill="#84BE84" rx="3" ry="3" style="stroke:#038048;stroke-width:1.0;"/>
            <text fill="#000000" font-family="sans-serif" font-size="14" lengthAdjust="spacing" textLength="274" x="164" y="670.9395">handleTableClick(MouseEvent event) : void</text>
            <ellipse cx="155" cy="684.3203" fill="#84BE84" rx="3" ry="3" style="stroke:#038048;stroke-width:1.0;"/>
            <text fill="#000000" font-family="sans-serif" font-size="14" lengthAdjust="spacing" textLength="304" x="164" y="688.5488">handleSearchVehiculo(ActionEvent event) : void</text>
            <ellipse cx="155" cy="701.9297" fill="#84BE84" rx="3" ry="3" style="stroke:#038048;stroke-width:1.0;"/>
            <text fill="#000000" font-family="sans-serif" font-size="14" lengthAdjust="spacing" textLength="284" x="164" y="706.1582">handleClearSearch(ActionEvent event) : void</text>
            <ellipse cx="155" cy="719.5391" fill="#84BE84" rx="3" ry="3" style="stroke:#038048;stroke-width:1.0;"/>
            <text fill="#000000" font-family="sans-serif" font-size="14" lengthAdjust="spacing" textLength="117" x="164" y="723.7676">clearFields() : void</text>
        </g>
        <!--class VehiculoController-->
        <g id="elem_VehiculoController">
            <rect codeLine="39" fill="#F1F1F1" height="188.875" id="VehiculoController" rx="2.5" ry="2.5" style="stroke:#181818;stroke-width:0.5;" width="302" x="172" y="809"/>
            <ellipse cx="260.75" cy="825" fill="#ADD1B2" rx="11" ry="11" style="stroke:#181818;stroke-width:1.0;"/>
            <path d="M263.5156,820.875 Q263.6719,820.6563 263.8594,820.5469 Q264.0469,820.4375 264.2656,820.4375 Q264.6406,820.4375 264.875,820.7031 Q265.1094,820.9531 265.1094,821.5625 L265.1094,823.0156 Q265.1094,823.625 264.875,823.8906 Q264.6406,824.1563 264.2656,824.1563 Q263.9219,824.1563 263.7188,823.9531 Q263.5156,823.7656 263.4063,823.25 Q263.3594,822.8906 263.1719,822.7031 Q262.8438,822.3281 262.2344,822.1094 Q261.625,821.8906 261,821.8906 Q260.2344,821.8906 259.5938,822.2188 Q258.9688,822.5469 258.4688,823.2969 Q257.9844,824.0469 257.9844,825.0781 L257.9844,826.1719 Q257.9844,827.4063 258.875,828.2344 Q259.7656,829.0469 261.3594,829.0469 Q262.2969,829.0469 262.9531,828.7969 Q263.3438,828.6406 263.7656,828.2031 Q264.0313,827.9375 264.1719,827.8594 Q264.3281,827.7813 264.5313,827.7813 Q264.8594,827.7813 265.1094,828.0469 Q265.375,828.2969 265.375,828.6406 Q265.375,828.9844 265.0313,829.3906 Q264.5313,829.9688 263.7344,830.2969 Q262.6563,830.75 261.3594,830.75 Q259.8438,830.75 258.6406,830.125 Q257.6563,829.625 256.9688,828.5625 Q256.2813,827.4844 256.2813,826.2031 L256.2813,825.0469 Q256.2813,823.7188 256.8906,822.5781 Q257.5156,821.4219 258.6094,820.8125 Q259.7031,820.1875 260.9375,820.1875 Q261.6719,820.1875 262.3125,820.3594 Q262.9688,820.5156 263.5156,820.875 Z " fill="#000000"/>
            <text fill="#000000" font-family="sans-serif" font-size="14" lengthAdjust="spacing" textLength="116" x="281.25" y="830.7285">VehiculoController</text>
            <line style="stroke:#181818;stroke-width:0.5;" x1="173" x2="473" y1="841" y2="841"/>
            <rect fill="none" height="6" style="stroke:#C82930;stroke-width:1.0;" width="6" x="180" y="852.3047"/>
            <text fill="#000000" font-family="sans-serif" font-size="14" lengthAdjust="spacing" textLength="167" x="192" y="859.5332">MongoDatabase database</text>
            <rect fill="none" height="6" style="stroke:#C82930;stroke-width:1.0;" width="6" x="180" y="869.9141"/>
            <text fill="#000000" font-family="sans-serif" font-size="14" lengthAdjust="spacing" textLength="248" x="192" y="877.1426">MongoCollection&lt;Document&gt; collection</text>
            <line style="stroke:#181818;stroke-width:0.5;" x1="173" x2="473" y1="884.2188" y2="884.2188"/>
            <ellipse cx="183" cy="898.5234" fill="#84BE84" rx="3" ry="3" style="stroke:#038048;stroke-width:1.0;"/>
            <text fill="#000000" font-family="sans-serif" font-size="14" lengthAdjust="spacing" textLength="126" x="192" y="902.752">VehiculoController()</text>
            <ellipse cx="183" cy="916.1328" fill="#84BE84" rx="3" ry="3" style="stroke:#038048;stroke-width:1.0;"/>
            <text fill="#000000" font-family="sans-serif" font-size="14" lengthAdjust="spacing" textLength="236" x="192" y="920.3613">addVehiculo(Vehiculo vehiculo) : void</text>
            <ellipse cx="183" cy="933.7422" fill="#84BE84" rx="3" ry="3" style="stroke:#038048;stroke-width:1.0;"/>
            <text fill="#000000" font-family="sans-serif" font-size="14" lengthAdjust="spacing" textLength="256" x="192" y="937.9707">updateVehiculo(Vehiculo vehiculo) : void</text>
            <ellipse cx="183" cy="951.3516" fill="#84BE84" rx="3" ry="3" style="stroke:#038048;stroke-width:1.0;"/>
            <text fill="#000000" font-family="sans-serif" font-size="14" lengthAdjust="spacing" textLength="216" x="192" y="955.5801">deleteVehiculo(String placa) : void</text>
            <ellipse cx="183" cy="968.9609" fill="#84BE84" rx="3" ry="3" style="stroke:#038048;stroke-width:1.0;"/>
            <text fill="#000000" font-family="sans-serif" font-size="14" lengthAdjust="spacing" textLength="276" x="192" y="973.1895">getVehiculoByPlaca(String placa) : Vehiculo</text>
            <ellipse cx="183" cy="986.5703" fill="#84BE84" rx="3" ry="3" style="stroke:#038048;stroke-width:1.0;"/>
            <text fill="#000000" font-family="sans-serif" font-size="14" lengthAdjust="spacing" textLength="210" x="192" y="990.7988">getAllVehiculos() : List&lt;Vehiculo&gt;</text>
        </g>
        <!--class Vehiculo-->
        <g id="elem_Vehiculo">
            <rect codeLine="53" fill="#F1F1F1" height="347.3594" id="Vehiculo" rx="2.5" ry="2.5" style="stroke:#181818;stroke-width:0.5;" width="428" x="46" y="1100"/>
            <ellipse cx="228.75" cy="1116" fill="#ADD1B2" rx="11" ry="11" style="stroke:#181818;stroke-width:1.0;"/>
            <path d="M231.5156,1111.875 Q231.6719,1111.6563 231.8594,1111.5469 Q232.0469,1111.4375 232.2656,1111.4375 Q232.6406,1111.4375 232.875,1111.7031 Q233.1094,1111.9531 233.1094,1112.5625 L233.1094,1114.0156 Q233.1094,1114.625 232.875,1114.8906 Q232.6406,1115.1563 232.2656,1115.1563 Q231.9219,1115.1563 231.7188,1114.9531 Q231.5156,1114.7656 231.4063,1114.25 Q231.3594,1113.8906 231.1719,1113.7031 Q230.8438,1113.3281 230.2344,1113.1094 Q229.625,1112.8906 229,1112.8906 Q228.2344,1112.8906 227.5938,1113.2188 Q226.9688,1113.5469 226.4688,1114.2969 Q225.9844,1115.0469 225.9844,1116.0781 L225.9844,1117.1719 Q225.9844,1118.4063 226.875,1119.2344 Q227.7656,1120.0469 229.3594,1120.0469 Q230.2969,1120.0469 230.9531,1119.7969 Q231.3438,1119.6406 231.7656,1119.2031 Q232.0313,1118.9375 232.1719,1118.8594 Q232.3281,1118.7813 232.5313,1118.7813 Q232.8594,1118.7813 233.1094,1119.0469 Q233.375,1119.2969 233.375,1119.6406 Q233.375,1119.9844 233.0313,1120.3906 Q232.5313,1120.9688 231.7344,1121.2969 Q230.6563,1121.75 229.3594,1121.75 Q227.8438,1121.75 226.6406,1121.125 Q225.6563,1120.625 224.9688,1119.5625 Q224.2813,1118.4844 224.2813,1117.2031 L224.2813,1116.0469 Q224.2813,1114.7188 224.8906,1113.5781 Q225.5156,1112.4219 226.6094,1111.8125 Q227.7031,1111.1875 228.9375,1111.1875 Q229.6719,1111.1875 230.3125,1111.3594 Q230.9688,1111.5156 231.5156,1111.875 Z " fill="#000000"/>
            <text fill="#000000" font-family="sans-serif" font-size="14" lengthAdjust="spacing" textLength="54" x="249.25" y="1121.7285">Vehiculo</text>
            <line style="stroke:#181818;stroke-width:0.5;" x1="47" x2="473" y1="1132" y2="1132"/>
            <rect fill="none" height="6" style="stroke:#C82930;stroke-width:1.0;" width="6" x="54" y="1143.3047"/>
            <text fill="#000000" font-family="sans-serif" font-size="14" lengthAdjust="spacing" textLength="129" x="66" y="1150.5332">StringProperty placa</text>
            <rect fill="none" height="6" style="stroke:#C82930;stroke-width:1.0;" width="6" x="54" y="1160.9141"/>
            <text fill="#000000" font-family="sans-serif" font-size="14" lengthAdjust="spacing" textLength="134" x="66" y="1168.1426">StringProperty marca</text>
            <rect fill="none" height="6" style="stroke:#C82930;stroke-width:1.0;" width="6" x="54" y="1178.5234"/>
            <text fill="#000000" font-family="sans-serif" font-size="14" lengthAdjust="spacing" textLength="141" x="66" y="1185.752">StringProperty modelo</text>
            <rect fill="none" height="6" style="stroke:#C82930;stroke-width:1.0;" width="6" x="54" y="1196.1328"/>
            <text fill="#000000" font-family="sans-serif" font-size="14" lengthAdjust="spacing" textLength="126" x="66" y="1203.3613">StringProperty color</text>
            <line style="stroke:#181818;stroke-width:0.5;" x1="47" x2="473" y1="1210.4375" y2="1210.4375"/>
            <ellipse cx="57" cy="1224.7422" fill="#84BE84" rx="3" ry="3" style="stroke:#038048;stroke-width:1.0;"/>
            <text fill="#000000" font-family="sans-serif" font-size="14" lengthAdjust="spacing" textLength="402" x="66" y="1228.9707">Vehiculo(String placa, String marca, String modelo, String color)</text>
            <ellipse cx="57" cy="1242.3516" fill="#84BE84" rx="3" ry="3" style="stroke:#038048;stroke-width:1.0;"/>
            <text fill="#000000" font-family="sans-serif" font-size="14" lengthAdjust="spacing" textLength="114" x="66" y="1246.5801">getPlaca() : String</text>
            <ellipse cx="57" cy="1259.9609" fill="#84BE84" rx="3" ry="3" style="stroke:#038048;stroke-width:1.0;"/>
            <text fill="#000000" font-family="sans-serif" font-size="14" lengthAdjust="spacing" textLength="177" x="66" y="1264.1895">setPlaca(String placa) : void</text>
            <ellipse cx="57" cy="1277.5703" fill="#84BE84" rx="3" ry="3" style="stroke:#038048;stroke-width:1.0;"/>
            <text fill="#000000" font-family="sans-serif" font-size="14" lengthAdjust="spacing" textLength="201" x="66" y="1281.7988">placaProperty() : StringProperty</text>
            <ellipse cx="57" cy="1295.1797" fill="#84BE84" rx="3" ry="3" style="stroke:#038048;stroke-width:1.0;"/>
            <text fill="#000000" font-family="sans-serif" font-size="14" lengthAdjust="spacing" textLength="118" x="66" y="1299.4082">getMarca() : String</text>
            <ellipse cx="57" cy="1312.7891" fill="#84BE84" rx="3" ry="3" style="stroke:#038048;stroke-width:1.0;"/>
            <text fill="#000000" font-family="sans-serif" font-size="14" lengthAdjust="spacing" textLength="186" x="66" y="1317.0176">setMarca(String marca) : void</text>
            <ellipse cx="57" cy="1330.3984" fill="#84BE84" rx="3" ry="3" style="stroke:#038048;stroke-width:1.0;"/>
            <text fill="#000000" font-family="sans-serif" font-size="14" lengthAdjust="spacing" textLength="206" x="66" y="1334.627">marcaProperty() : StringProperty</text>
            <ellipse cx="57" cy="1348.0078" fill="#84BE84" rx="3" ry="3" style="stroke:#038048;stroke-width:1.0;"/>
            <text fill="#000000" font-family="sans-serif" font-size="14" lengthAdjust="spacing" textLength="125" x="66" y="1352.2363">getModelo() : String</text>
            <ellipse cx="57" cy="1365.6172" fill="#84BE84" rx="3" ry="3" style="stroke:#038048;stroke-width:1.0;"/>
            <text fill="#000000" font-family="sans-serif" font-size="14" lengthAdjust="spacing" textLength="200" x="66" y="1369.8457">setModelo(String modelo) : void</text>
            <ellipse cx="57" cy="1383.2266" fill="#84BE84" rx="3" ry="3" style="stroke:#038048;stroke-width:1.0;"/>
            <text fill="#000000" font-family="sans-serif" font-size="14" lengthAdjust="spacing" textLength="213" x="66" y="1387.4551">modeloProperty() : StringProperty</text>
            <ellipse cx="57" cy="1400.8359" fill="#84BE84" rx="3" ry="3" style="stroke:#038048;stroke-width:1.0;"/>
            <text fill="#000000" font-family="sans-serif" font-size="14" lengthAdjust="spacing" textLength="113" x="66" y="1405.0645">getColor() : String</text>
            <ellipse cx="57" cy="1418.4453" fill="#84BE84" rx="3" ry="3" style="stroke:#038048;stroke-width:1.0;"/>
            <text fill="#000000" font-family="sans-serif" font-size="14" lengthAdjust="spacing" textLength="173" x="66" y="1422.6738">setColor(String color) : void</text>
            <ellipse cx="57" cy="1436.0547" fill="#84BE84" rx="3" ry="3" style="stroke:#038048;stroke-width:1.0;"/>
            <text fill="#000000" font-family="sans-serif" font-size="14" lengthAdjust="spacing" textLength="198" x="66" y="1440.2832">colorProperty() : StringProperty</text>
        </g>
        <!--class MongoDatabase-->
        <g id="elem_MongoDatabase">
            <rect fill="#F1F1F1" height="48" id="MongoDatabase" rx="2.5" ry="2.5" style="stroke:#181818;stroke-width:0.5;" width="136" x="530" y="1249.5"/>
            <ellipse cx="545" cy="1265.5" fill="#ADD1B2" rx="11" ry="11" style="stroke:#181818;stroke-width:1.0;"/>
            <path d="M547.7656,1261.375 Q547.9219,1261.1563 548.1094,1261.0469 Q548.2969,1260.9375 548.5156,1260.9375 Q548.8906,1260.9375 549.125,1261.2031 Q549.3594,1261.4531 549.3594,1262.0625 L549.3594,1263.5156 Q549.3594,1264.125 549.125,1264.3906 Q548.8906,1264.6563 548.5156,1264.6563 Q548.1719,1264.6563 547.9688,1264.4531 Q547.7656,1264.2656 547.6563,1263.75 Q547.6094,1263.3906 547.4219,1263.2031 Q547.0938,1262.8281 546.4844,1262.6094 Q545.875,1262.3906 545.25,1262.3906 Q544.4844,1262.3906 543.8438,1262.7188 Q543.2188,1263.0469 542.7188,1263.7969 Q542.2344,1264.5469 542.2344,1265.5781 L542.2344,1266.6719 Q542.2344,1267.9063 543.125,1268.7344 Q544.0156,1269.5469 545.6094,1269.5469 Q546.5469,1269.5469 547.2031,1269.2969 Q547.5938,1269.1406 548.0156,1268.7031 Q548.2813,1268.4375 548.4219,1268.3594 Q548.5781,1268.2813 548.7813,1268.2813 Q549.1094,1268.2813 549.3594,1268.5469 Q549.625,1268.7969 549.625,1269.1406 Q549.625,1269.4844 549.2813,1269.8906 Q548.7813,1270.4688 547.9844,1270.7969 Q546.9063,1271.25 545.6094,1271.25 Q544.0938,1271.25 542.8906,1270.625 Q541.9063,1270.125 541.2188,1269.0625 Q540.5313,1267.9844 540.5313,1266.7031 L540.5313,1265.5469 Q540.5313,1264.2188 541.1406,1263.0781 Q541.7656,1261.9219 542.8594,1261.3125 Q543.9531,1260.6875 545.1875,1260.6875 Q545.9219,1260.6875 546.5625,1260.8594 Q547.2188,1261.0156 547.7656,1261.375 Z " fill="#000000"/>
            <text fill="#000000" font-family="sans-serif" font-size="14" lengthAdjust="spacing" textLength="104" x="559" y="1271.2285">MongoDatabase</text>
            <line style="stroke:#181818;stroke-width:0.5;" x1="531" x2="665" y1="1281.5" y2="1281.5"/>
            <line style="stroke:#181818;stroke-width:0.5;" x1="531" x2="665" y1="1289.5" y2="1289.5"/>
        </g>
        <!--class MongoCollection-->
        <g id="elem_MongoCollection">
            <rect fill="#F1F1F1" height="48" id="MongoCollection" rx="2.5" ry="2.5" style="stroke:#181818;stroke-width:0.5;" width="137" x="701.5" y="1249.5"/>
            <ellipse cx="716.5" cy="1265.5" fill="#ADD1B2" rx="11" ry="11" style="stroke:#181818;stroke-width:1.0;"/>
            <path d="M719.2656,1261.375 Q719.4219,1261.1563 719.6094,1261.0469 Q719.7969,1260.9375 720.0156,1260.9375 Q720.3906,1260.9375 720.625,1261.2031 Q720.8594,1261.4531 720.8594,1262.0625 L720.8594,1263.5156 Q720.8594,1264.125 720.625,1264.3906 Q720.3906,1264.6563 720.0156,1264.6563 Q719.6719,1264.6563 719.4688,1264.4531 Q719.2656,1264.2656 719.1563,1263.75 Q719.1094,1263.3906 718.9219,1263.2031 Q718.5938,1262.8281 717.9844,1262.6094 Q717.375,1262.3906 716.75,1262.3906 Q715.9844,1262.3906 715.3438,1262.7188 Q714.7188,1263.0469 714.2188,1263.7969 Q713.7344,1264.5469 713.7344,1265.5781 L713.7344,1266.6719 Q713.7344,1267.9063 714.625,1268.7344 Q715.5156,1269.5469 717.1094,1269.5469 Q718.0469,1269.5469 718.7031,1269.2969 Q719.0938,1269.1406 719.5156,1268.7031 Q719.7813,1268.4375 719.9219,1268.3594 Q720.0781,1268.2813 720.2813,1268.2813 Q720.6094,1268.2813 720.8594,1268.5469 Q721.125,1268.7969 721.125,1269.1406 Q721.125,1269.4844 720.7813,1269.8906 Q720.2813,1270.4688 719.4844,1270.7969 Q718.4063,1271.25 717.1094,1271.25 Q715.5938,1271.25 714.3906,1270.625 Q713.4063,1270.125 712.7188,1269.0625 Q712.0313,1267.9844 712.0313,1266.7031 L712.0313,1265.5469 Q712.0313,1264.2188 712.6406,1263.0781 Q713.2656,1261.9219 714.3594,1261.3125 Q715.4531,1260.6875 716.6875,1260.6875 Q717.4219,1260.6875 718.0625,1260.8594 Q718.7188,1261.0156 719.2656,1261.375 Z " fill="#000000"/>
            <text fill="#000000" font-family="sans-serif" font-size="14" lengthAdjust="spacing" textLength="105" x="730.5" y="1271.2285">MongoCollection</text>
            <line style="stroke:#181818;stroke-width:0.5;" x1="702.5" x2="837.5" y1="1281.5" y2="1281.5"/>
            <line style="stroke:#181818;stroke-width:0.5;" x1="702.5" x2="837.5" y1="1289.5" y2="1289.5"/>
        </g>
        <!--reverse link ParqueaderoApp5 to MainController-->
        <g id="link_ParqueaderoApp5_MainController">
            <path codeLine="76" d="M309,138.09 C309,162.16 309,192.46 309,224.98 " fill="none" id="ParqueaderoApp5-backto-MainController" style="stroke:#181818;stroke-width:1.0;"/>
            <polygon fill="#181818" points="309,125.03,305,131.03,309,137.03,313,131.03,309,125.03" style="stroke:#181818;stroke-width:1.0;"/>
            <text fill="#000000" font-family="sans-serif" font-size="13" lengthAdjust="spacing" textLength="21" x="310" y="169.4951">usa</text>
            <text fill="#000000" font-family="sans-serif" font-size="13" lengthAdjust="spacing" textLength="7" x="301.4203" y="146.7395">1</text>
            <text fill="#000000" font-family="sans-serif" font-size="13" lengthAdjust="spacing" textLength="7" x="301.8852" y="213.9187">1</text>
        </g>
        <!--reverse link MainController to VehiculoController-->
        <g id="link_MainController_VehiculoController">
            <path codeLine="77" d="M317.77,744.29 C318.52,767.09 319.25,789 319.9,808.86 " fill="none" id="MainController-backto-VehiculoController" style="stroke:#181818;stroke-width:1.0;"/>
            <polygon fill="#181818" points="317.34,731.16,313.5468,737.2928,317.749,743.153,321.5422,737.0202,317.34,731.16" style="stroke:#181818;stroke-width:1.0;"/>
            <text fill="#000000" font-family="sans-serif" font-size="13" lengthAdjust="spacing" textLength="53" x="319" y="775.4951">compone</text>
            <text fill="#000000" font-family="sans-serif" font-size="13" lengthAdjust="spacing" textLength="7" x="310.4837" y="752.4158">1</text>
            <text fill="#000000" font-family="sans-serif" font-size="13" lengthAdjust="spacing" textLength="7" x="312.3741" y="798.195">1</text>
        </g>
        <!--reverse link MainController to Vehiculo-->
        <g id="link_MainController_Vehiculo">
            <path codeLine="78" d="M137.97,720.31 C123.76,749.16 111.58,779.04 103,809 C76.93,900.01 76.84,931.02 103,1022 C110.59,1048.39 121.86,1074.69 134.95,1099.79 " fill="none" id="MainController-backto-Vehiculo" style="stroke:#181818;stroke-width:1.0;"/>
            <polygon fill="#181818" points="143.95,708.44,137.675,711.9931,138.5413,719.1519,144.8163,715.5989,143.95,708.44" style="stroke:#181818;stroke-width:1.0;"/>
            <text fill="#000000" font-family="sans-serif" font-size="13" lengthAdjust="spacing" textLength="49" x="104" y="908.9951">gestiona</text>
            <text fill="#000000" font-family="sans-serif" font-size="13" lengthAdjust="spacing" textLength="7" x="128.7859" y="716.7219">1</text>
            <text fill="#000000" font-family="sans-serif" font-size="13" lengthAdjust="spacing" textLength="20" x="108.8305" y="1089.0512">0..*</text>
        </g>
        <!--reverse link VehiculoController to Vehiculo-->
        <g id="link_VehiculoController_Vehiculo">
            <path codeLine="79" d="M304.72,1011.26 C299.97,1039 294.74,1069.6 289.57,1099.79 " fill="none" id="VehiculoController-backto-Vehiculo" style="stroke:#181818;stroke-width:1.0;"/>
            <polygon fill="#181818" points="306.94,998.31,301.9824,1003.5467,304.9095,1010.137,309.8671,1004.9003,306.94,998.31" style="stroke:#181818;stroke-width:1.0;"/>
            <text fill="#000000" font-family="sans-serif" font-size="13" lengthAdjust="spacing" textLength="42" x="301" y="1044.4951">maneja</text>
            <text fill="#000000" font-family="sans-serif" font-size="13" lengthAdjust="spacing" textLength="7" x="298.5036" y="1019.3727">1</text>
            <text fill="#000000" font-family="sans-serif" font-size="13" lengthAdjust="spacing" textLength="20" x="270.4568" y="1089.0512">0..*</text>
        </g>
        <!--reverse link VehiculoController to MongoDatabase-->
        <g id="link_VehiculoController_MongoDatabase">
            <path codeLine="80" d="M447.5,1007.66 C462.74,1023.03 477.37,1039.33 490,1056 C538.2,1119.61 574.34,1208.06 589.78,1249.43 " fill="none" id="VehiculoController-backto-MongoDatabase" style="stroke:#181818;stroke-width:1.0;"/>
            <polygon fill="none" points="437.94,998.21,439.3927,1005.2733,446.4713,1006.649,445.0187,999.5857,437.94,998.21" style="stroke:#181818;stroke-width:1.0;"/>
            <text fill="#000000" font-family="sans-serif" font-size="13" lengthAdjust="spacing" textLength="46" x="483" y="1044.4951">conecta</text>
            <text fill="#000000" font-family="sans-serif" font-size="13" lengthAdjust="spacing" textLength="7" x="439.1239" y="1019.2654">1</text>
            <text fill="#000000" font-family="sans-serif" font-size="13" lengthAdjust="spacing" textLength="7" x="579.7768" y="1238.7522">1</text>
        </g>
        <!--reverse link VehiculoController to MongoCollection-->
        <g id="link_VehiculoController_MongoCollection">
            <path codeLine="81" d="M486.95,942.92 C555.21,966 630.79,1001.76 684,1056 C738.52,1111.58 759.67,1205.99 766.81,1249.41 " fill="none" id="VehiculoController-backto-MongoCollection" style="stroke:#181818;stroke-width:1.0;"/>
            <polygon fill="none" points="474.29,938.76,478.7428,944.4321,485.6912,942.5033,481.2384,936.8312,474.29,938.76" style="stroke:#181818;stroke-width:1.0;"/>
            <text fill="#000000" font-family="sans-serif" font-size="13" lengthAdjust="spacing" textLength="32" x="669" y="1044.4951">opera</text>
            <text fill="#000000" font-family="sans-serif" font-size="13" lengthAdjust="spacing" textLength="7" x="481.7876" y="937.5871">1</text>
            <text fill="#000000" font-family="sans-serif" font-size="13" lengthAdjust="spacing" textLength="7" x="758.0957" y="1238.7271">1</text>
        </g>
        <!--SRC=[dLPDRzim3BtdLmWzfUrIR8TTYg90bcod1YlGjPTX1yOc4gsAv4bojcxeVvz4MOa_P3U93uailgT7KXJb0h9dM24hGFyg4NBK2ehY8_it6Z7tP0ACOVTxupGOMVLS6WlQZXyihQ7v1lGBlPopQxPLFDyZDy2b0sekLzz_CD0hqy2y1i6YyYTJqceb16fJamlkBDnAivszPlRFv1ii1Jvn_7tpX6kUbKBTicqrCcHCu6TAb1kvOxnZmT5RLWZ885YFeRayd4HJEGfrF2zJGkaa3V_OBnn57WAXOH-2V1v6a7k34F9a467GwQmJa3jOegZC2pJ6bK4AW5ehdRJ7lDHgOzkPQbA-BWtghS_j7JSsLJ5pi31ga2wvv9Q3u7znt2bp0coTCGUB5AGXq58fWI3Jk7k_DzNP21lr9cNcynmfbFHU2ZUq_gFaxX0Vfh86cGkSvdbCo7YQMQxavorAoz3_fYCFn3aAj7WQzx7muPt63OT4yEnvl52bmGDf3rHofqdENF9qME1GOkOfjT9e85v7hMQNAEfMmriekLA-J9TWaENL886PUJhvU3DNMRbn7bBhg2PRLTuL7fyt4L2hZpZO7Pnqx6LpTmzavSrwQfTmbx126z6VNjAdAzexnAaGqHRsfzaPQZkLkBQeGtPlh5sShQqBJjrhLQ2sBy6vGGJrw644zUX12BMBdjrkv2bUC45s_qOIkzVGVJfv36dt2Gou9i14mDkRIQReV6t1EDLHNdXlXvG3e1vRMfbCHobJPWQb0wAHoHvniXsZ7kw40V7qfP7eKDvqY78y0-uKjByHppwSiOl9XFvR7spNh3GmQatMyOcUT-tytHHAOY_l_TNLnPxg22iqlgt1AB5SFsi34d_sSbICgD5plNFIDT73QFisx8W-eV0V]-->
    </g>
</svg>
